# xmcd
#
# Track frame offsets:
#	150
#	15955
#	27360
#	44552
#	56865
#	70645
#
# Disc length: 1080
#
# Revision: 3
# Processed by: cddbd v1.5.1PL0 Copyright (c) Steve Scherf et al.
# Submitted via: DiscPlay 4.0.4
# Normalized: r1:TSWAP
#
DISCID=48043606
DTITLE=Various Artist - Blue to the Bone
DYEAR=1900
DGENRE=
TTITLE0=Rufus Thomas - Come Here Mama
TTITLE1=John Lee Hooker - Boom Boom
TTITLE2=Bo Diddley - Mona (I need you Baby)
TTITLE3=Lightning Slim - Rooster Blues
TTITLE4=Muddy Waters - Hoochie Coochie Man
TTITLE5=Jimmy Reed - Ain't That Lovin' You Baby
EXTD=
EXTT0=
EXTT1=
EXTT2=
EXTT3=
EXTT4=
EXTT5=
PLAYORDER=
